 <svg  version="1.0" xmlns="http://www.w3.org/2000/svg"  width="300.000000pt" height="378.000000pt" viewBox="0 0 300.000000 378.000000"  preserveAspectRatio="xMidYMid meet">  <g transform="translate(0.000000,378.000000) scale(0.050000,-0.050000)" fill="#ed700a" stroke="none"> <path d="M1801 7195 c-847 -91 -1383 -885 -1386 -2055 -2 -1089 359 -1755 1078 -1988 235 -77 788 -169 819 -137 52 52 25 93 -72 110 -684 126 -842 180 -1086 372 -705 553 -779 2138 -142 3036 243 343 474 427 1068 389 182 -11 452 -26 600 -32 1227 -51 1969 -353 2317 -942 271 -459 243 -892 -110 -1686 -192 -433 -141 -391 -643 -534 -831 -237 -1217 -557 -938 -777 55 -44 58 -51 23 -51 -61 0 -89 -39 -89 -121 0 -44 -19 -101 -46 -141 -248 -364 -258 -389 -179 -468 138 -138 492 -72 665 125 141 160 122 268 -60 355 -149 71 -215 127 -231 194 l-13 53 97 -29 c140 -42 236 -21 328 73 62 64 110 87 282 139 1056 320 1230 471 1555 1355 578 1575 -128 2563 -1968 2754 -299 31 -1598 35 -1869 6z"/> <path d="M2904 6107 c-36 -18 -83 -54 -103 -80 l-38 -48 -72 49 c-150 102 -313 71 -425 -81 -52 -71 -62 -77 -142 -71 -341 25 -594 -279 -434 -523 74 -113 386 -163 663 -106 l83 17 40 -177 c143 -619 174 -1048 115 -1576 -29 -262 -28 -296 11 -257 143 143 83 1416 -94 2010 -24 80 241 151 315 84 19 -18 65 -39 100 -46 65 -13 65 -14 90 -185 30 -211 64 -345 177 -707 48 -154 100 -325 116 -379 44 -157 212 -177 348 -41 86 86 87 79 -65 553 -130 402 -188 614 -189 682 0 29 19 35 115 35 395 2 638 70 708 200 181 337 -433 786 -854 625 l-102 -38 -68 46 c-81 56 -198 61 -295 14z m-329 -207 c132 -80 207 -321 100 -320 -126 2 -295 135 -295 234 0 124 77 158 195 86z m472 -17 c32 -35 31 -42 -4 -121 -43 -97 -63 -75 -63 70 0 96 16 108 67 51z m-886 -84 c24 -12 39 -41 39 -75 0 -58 87 -204 122 -204 35 0 85 -143 57 -161 -94 -58 -400 -57 -523 1 -106 50 -152 288 -70 357 90 74 303 121 375 82z m1519 -51 c106 -57 235 -179 214 -201 -8 -7 -132 -18 -277 -23 l-262 -10 14 118 c22 195 22 195 125 181 50 -7 133 -36 186 -65z"/> <path d="M2185 1850 c-223 -62 -405 -211 -405 -329 0 -43 76 -21 87 26 61 242 528 333 1147 224 658 -116 854 -319 539 -560 l-70 -53 -106 59 c-506 279 -1665 21 -1828 -408 -115 -300 336 -434 916 -272 151 42 150 43 94 -49 -31 -49 -40 -92 -35 -170 8 -142 30 -153 246 -122 619 90 1040 488 848 802 l-41 68 99 102 c234 240 231 416 -7 525 -307 140 -1206 236 -1484 157z m670 -931 c94 -33 72 -47 -190 -121 -481 -137 -1068 -51 -627 92 217 70 655 86 817 29z m285 -208 c0 -29 -107 -63 -255 -83 -73 -9 -105 -6 -105 9 0 13 11 23 25 24 14 0 83 26 155 58 128 58 180 55 180 -8z"/> </g> </svg> 