<svg xmlns="http://www.w3.org/2000/svg" viewBox="0 0 24 24" fill="currentColor">
  <path d="M7 8h10a4 4 0 0 1 3.92 4.78l-.67 3.36A2.5 2.5 0 0 1 17.8 18h-1.05a2 2 0 0 1-1.41-.59l-1.93-1.92a2 2 0 0 0-2.82 0l-1.93 1.92A2 2 0 0 1 7.25 18H6.2a2.5 2.5 0 0 1-2.45-1.86l-.67-3.36A4 4 0 0 1 7 8Zm-.5 3a.5.5 0 0 0-.5.5V13H4.5a.5.5 0 0 0-.5.5v1a.5.5 0 0 0 .5.5H6v1.5a.5.5 0 0 0 .5.5h1a.5.5 0 0 0 .5-.5V15h1.5a.5.5 0 0 0 .5-.5v-1a.5.5 0 0 0-.5-.5H8v-1.5a.5.5 0 0 0-.5-.5h-1Zm10 1.25a1.25 1.25 0 1 0 0 2.5 1.25 1.25 0 0 0 0-2.5Zm2.75-1.75a1.25 1.25 0 1 0 0 2.5 1.25 1.25 0 0 0 0-2.5Z"/>
</svg>
